<?xml version="1.0" standalone="no"?>
<svg viewBox="0 0 200 200" xmlns="http://www.w3.org/2000/svg">
  <path fill="#FFF2F3" d="M44.8,-73.4C59.3,-69.3,72.9,-59.6,72.3,-46.5C71.7,-33.3,56.7,-16.7,51.5,-3C46.2,10.6,50.6,21.2,50,32.2C49.4,43.1,43.7,54.5,34.5,60.6C25.4,66.6,12.7,67.3,-1.4,69.7C-15.4,72.1,-30.8,76.1,-41.4,70.8C-51.9,65.6,-57.7,51.1,-60.1,37.7C-62.6,24.4,-61.8,12.2,-58.2,2.1C-54.5,-8,-47.9,-15.9,-45.3,-29C-42.7,-42.1,-44.1,-60.4,-37.2,-68.9C-30.3,-77.3,-15.1,-76,0,-76.1C15.2,-76.1,30.4,-77.5,44.8,-73.4Z" transform="translate(100 100)" />
</svg>
