<?xml version="1.0" standalone="no"?>
<svg viewBox="0 0 200 200" xmlns="http://www.w3.org/2000/svg">
  <path fill="#FFF2F3" d="M24.8,-34.2C37.9,-35.3,58.5,-40.5,62.4,-35.4C66.3,-30.4,53.6,-15.2,51.1,-1.4C48.7,12.4,56.6,24.8,55.5,34.8C54.5,44.8,44.5,52.3,33.8,51C23,49.7,11.5,39.6,-2,43.1C-15.5,46.5,-31.1,63.6,-41.6,64.8C-52,65.9,-57.5,51.1,-63,37.7C-68.6,24.2,-74.2,12.1,-75.3,-0.6C-76.3,-13.3,-72.8,-26.6,-65.6,-37.3C-58.4,-47.9,-47.7,-55.9,-36.1,-55.8C-24.6,-55.6,-12.3,-47.4,-3.3,-41.7C5.8,-36.1,11.6,-33.1,24.8,-34.2Z" transform="translate(100 100)" />
</svg>
